<mxfile host="app.diagrams.net" agent="Mozilla/5.0 (Windows NT 10.0; Win64; x64) AppleWebKit/537.36 (KHTML, like Gecko) Chrome/131.0.0.0 Safari/537.36" version="26.0.16">
  <diagram id="R2lEEEUBdFMjLlhIrx00" name="Page-1">
    <mxGraphModel dx="1793" dy="933" grid="1" gridSize="10" guides="1" tooltips="1" connect="1" arrows="1" fold="1" page="1" pageScale="1" pageWidth="850" pageHeight="1100" math="0" shadow="0" extFonts="Permanent Marker^https://fonts.googleapis.com/css?family=Permanent+Marker">
      <root>
        <mxCell id="0" />
        <mxCell id="1" parent="0" />
        <mxCell id="ctMOSWHJZRxfP_i-9TRb-1" value="FLORICULTURA" style="swimlane;childLayout=stackLayout;horizontal=1;startSize=50;horizontalStack=0;rounded=1;fontSize=14;fontStyle=0;strokeWidth=2;resizeParent=0;resizeLast=1;shadow=0;dashed=0;align=center;arcSize=10;whiteSpace=wrap;html=1;" vertex="1" parent="1">
          <mxGeometry x="280" y="30" width="160" height="120" as="geometry" />
        </mxCell>
        <mxCell id="ctMOSWHJZRxfP_i-9TRb-3" value="NOTA FISCAL" style="swimlane;childLayout=stackLayout;horizontal=1;startSize=40;horizontalStack=0;rounded=1;fontSize=14;fontStyle=0;strokeWidth=2;resizeParent=0;resizeLast=1;shadow=0;dashed=0;align=center;arcSize=4;whiteSpace=wrap;html=1;" vertex="1" parent="1">
          <mxGeometry x="613" y="430" width="160" height="120" as="geometry" />
        </mxCell>
        <mxCell id="ctMOSWHJZRxfP_i-9TRb-4" value="Data da Compra&lt;div&gt;Valor Total&lt;/div&gt;" style="align=left;strokeColor=none;fillColor=none;spacingLeft=4;spacingRight=4;fontSize=12;verticalAlign=top;resizable=0;rotatable=0;part=1;html=1;whiteSpace=wrap;" vertex="1" parent="ctMOSWHJZRxfP_i-9TRb-3">
          <mxGeometry y="40" width="160" height="80" as="geometry" />
        </mxCell>
        <mxCell id="ctMOSWHJZRxfP_i-9TRb-5" value="PLANTAS" style="swimlane;childLayout=stackLayout;horizontal=1;startSize=50;horizontalStack=0;rounded=1;fontSize=14;fontStyle=0;strokeWidth=2;resizeParent=0;resizeLast=1;shadow=0;dashed=0;align=center;arcSize=4;whiteSpace=wrap;html=1;" vertex="1" parent="1">
          <mxGeometry x="70" y="290" width="160" height="120" as="geometry" />
        </mxCell>
        <mxCell id="ctMOSWHJZRxfP_i-9TRb-7" value="VASOS" style="swimlane;childLayout=stackLayout;horizontal=1;startSize=50;horizontalStack=0;rounded=1;fontSize=14;fontStyle=0;strokeWidth=2;resizeParent=0;resizeLast=1;shadow=0;dashed=0;align=center;arcSize=4;whiteSpace=wrap;html=1;" vertex="1" parent="1">
          <mxGeometry x="70" y="570" width="160" height="120" as="geometry" />
        </mxCell>
        <mxCell id="ctMOSWHJZRxfP_i-9TRb-9" value="FLORES" style="swimlane;childLayout=stackLayout;horizontal=1;startSize=50;horizontalStack=0;rounded=1;fontSize=14;fontStyle=0;strokeWidth=2;resizeParent=0;resizeLast=1;shadow=0;dashed=0;align=center;arcSize=4;whiteSpace=wrap;html=1;" vertex="1" parent="1">
          <mxGeometry x="70" y="430" width="160" height="120" as="geometry" />
        </mxCell>
        <mxCell id="ctMOSWHJZRxfP_i-9TRb-10" value="Cores" style="align=left;strokeColor=none;fillColor=none;spacingLeft=4;spacingRight=4;fontSize=12;verticalAlign=top;resizable=0;rotatable=0;part=1;html=1;whiteSpace=wrap;" vertex="1" parent="ctMOSWHJZRxfP_i-9TRb-9">
          <mxGeometry y="50" width="160" height="70" as="geometry" />
        </mxCell>
        <mxCell id="ctMOSWHJZRxfP_i-9TRb-11" value="CLIENTES" style="swimlane;childLayout=stackLayout;horizontal=1;startSize=50;horizontalStack=0;rounded=1;fontSize=14;fontStyle=0;strokeWidth=2;resizeParent=0;resizeLast=1;shadow=0;dashed=0;align=center;arcSize=4;whiteSpace=wrap;html=1;" vertex="1" parent="1">
          <mxGeometry x="280" y="198" width="160" height="120" as="geometry" />
        </mxCell>
        <mxCell id="ctMOSWHJZRxfP_i-9TRb-12" value="Nª do RG&lt;div&gt;Nome&lt;/div&gt;&lt;div&gt;Nª telefone&amp;nbsp;&lt;/div&gt;" style="align=left;strokeColor=none;fillColor=none;spacingLeft=4;spacingRight=4;fontSize=12;verticalAlign=top;resizable=0;rotatable=0;part=1;html=1;whiteSpace=wrap;" vertex="1" parent="ctMOSWHJZRxfP_i-9TRb-11">
          <mxGeometry y="50" width="160" height="70" as="geometry" />
        </mxCell>
        <mxCell id="ctMOSWHJZRxfP_i-9TRb-13" value="ENDEREÇOS" style="swimlane;childLayout=stackLayout;horizontal=1;startSize=50;horizontalStack=0;rounded=1;fontSize=14;fontStyle=0;strokeWidth=2;resizeParent=0;resizeLast=1;shadow=0;dashed=0;align=center;arcSize=4;whiteSpace=wrap;html=1;" vertex="1" parent="1">
          <mxGeometry x="610" y="198" width="160" height="120" as="geometry" />
        </mxCell>
        <mxCell id="ctMOSWHJZRxfP_i-9TRb-15" value="PRODUTOS" style="swimlane;childLayout=stackLayout;horizontal=1;startSize=50;horizontalStack=0;rounded=1;fontSize=14;fontStyle=0;strokeWidth=2;resizeParent=0;resizeLast=1;shadow=0;dashed=0;align=center;arcSize=4;whiteSpace=wrap;html=1;" vertex="1" parent="1">
          <mxGeometry x="380" y="430" width="160" height="120" as="geometry" />
        </mxCell>
        <mxCell id="ctMOSWHJZRxfP_i-9TRb-16" value="Nome do Produto&lt;div&gt;Preço&lt;/div&gt;&lt;div&gt;Quantidade em Estoque&lt;/div&gt;" style="align=left;strokeColor=none;fillColor=none;spacingLeft=4;spacingRight=4;fontSize=12;verticalAlign=top;resizable=0;rotatable=0;part=1;html=1;whiteSpace=wrap;" vertex="1" parent="ctMOSWHJZRxfP_i-9TRb-15">
          <mxGeometry y="50" width="160" height="70" as="geometry" />
        </mxCell>
        <mxCell id="ctMOSWHJZRxfP_i-9TRb-28" value="" style="endArrow=none;html=1;rounded=0;entryX=0;entryY=0.25;entryDx=0;entryDy=0;" edge="1" parent="1">
          <mxGeometry relative="1" as="geometry">
            <mxPoint x="440" y="258" as="sourcePoint" />
            <mxPoint x="610" y="258" as="targetPoint" />
            <Array as="points" />
          </mxGeometry>
        </mxCell>
        <mxCell id="ctMOSWHJZRxfP_i-9TRb-34" value="MANTER" style="edgeLabel;html=1;align=center;verticalAlign=middle;resizable=0;points=[];" vertex="1" connectable="0" parent="ctMOSWHJZRxfP_i-9TRb-28">
          <mxGeometry x="-0.0418" y="-2" relative="1" as="geometry">
            <mxPoint y="-13" as="offset" />
          </mxGeometry>
        </mxCell>
        <mxCell id="ctMOSWHJZRxfP_i-9TRb-29" value="" style="endArrow=none;html=1;rounded=0;exitX=0.996;exitY=0.369;exitDx=0;exitDy=0;exitPerimeter=0;entryX=0.005;entryY=0.42;entryDx=0;entryDy=0;entryPerimeter=0;" edge="1" parent="1" source="ctMOSWHJZRxfP_i-9TRb-5" target="ctMOSWHJZRxfP_i-9TRb-15">
          <mxGeometry relative="1" as="geometry">
            <mxPoint x="450" y="450" as="sourcePoint" />
            <mxPoint x="610" y="450" as="targetPoint" />
          </mxGeometry>
        </mxCell>
        <mxCell id="ctMOSWHJZRxfP_i-9TRb-37" value="SÃO" style="edgeLabel;html=1;align=center;verticalAlign=middle;resizable=0;points=[];rotation=35;" vertex="1" connectable="0" parent="ctMOSWHJZRxfP_i-9TRb-29">
          <mxGeometry x="-0.0991" y="-2" relative="1" as="geometry">
            <mxPoint y="10" as="offset" />
          </mxGeometry>
        </mxCell>
        <mxCell id="ctMOSWHJZRxfP_i-9TRb-30" value="" style="endArrow=none;html=1;rounded=0;exitX=1;exitY=0;exitDx=0;exitDy=0;entryX=0.02;entryY=0.008;entryDx=0;entryDy=0;entryPerimeter=0;" edge="1" parent="1" source="ctMOSWHJZRxfP_i-9TRb-10" target="ctMOSWHJZRxfP_i-9TRb-16">
          <mxGeometry relative="1" as="geometry">
            <mxPoint x="140" y="400" as="sourcePoint" />
            <mxPoint x="600" y="410" as="targetPoint" />
          </mxGeometry>
        </mxCell>
        <mxCell id="ctMOSWHJZRxfP_i-9TRb-38" value="SÃO" style="edgeLabel;html=1;align=center;verticalAlign=middle;resizable=0;points=[];" vertex="1" connectable="0" parent="ctMOSWHJZRxfP_i-9TRb-30">
          <mxGeometry x="-0.1338" relative="1" as="geometry">
            <mxPoint x="-15" y="-10" as="offset" />
          </mxGeometry>
        </mxCell>
        <mxCell id="ctMOSWHJZRxfP_i-9TRb-31" value="" style="endArrow=none;html=1;rounded=0;exitX=1.013;exitY=0.347;exitDx=0;exitDy=0;exitPerimeter=0;entryX=0.002;entryY=0.42;entryDx=0;entryDy=0;entryPerimeter=0;" edge="1" parent="1" source="ctMOSWHJZRxfP_i-9TRb-7" target="ctMOSWHJZRxfP_i-9TRb-15">
          <mxGeometry relative="1" as="geometry">
            <mxPoint x="140" y="400" as="sourcePoint" />
            <mxPoint x="610" y="440" as="targetPoint" />
          </mxGeometry>
        </mxCell>
        <mxCell id="ctMOSWHJZRxfP_i-9TRb-39" value="SÃO" style="edgeLabel;html=1;align=center;verticalAlign=middle;resizable=0;points=[];rotation=-45;" vertex="1" connectable="0" parent="ctMOSWHJZRxfP_i-9TRb-31">
          <mxGeometry x="-0.0341" y="-2" relative="1" as="geometry">
            <mxPoint y="-16" as="offset" />
          </mxGeometry>
        </mxCell>
        <mxCell id="ctMOSWHJZRxfP_i-9TRb-32" value="" style="endArrow=none;html=1;rounded=0;entryX=0.008;entryY=0.004;entryDx=0;entryDy=0;entryPerimeter=0;exitX=0.98;exitY=0.965;exitDx=0;exitDy=0;exitPerimeter=0;" edge="1" parent="1" source="ctMOSWHJZRxfP_i-9TRb-12" target="ctMOSWHJZRxfP_i-9TRb-3">
          <mxGeometry relative="1" as="geometry">
            <mxPoint x="440" y="311" as="sourcePoint" />
            <mxPoint x="610" y="600" as="targetPoint" />
          </mxGeometry>
        </mxCell>
        <mxCell id="ctMOSWHJZRxfP_i-9TRb-43" value="GERAM" style="edgeLabel;html=1;align=center;verticalAlign=middle;resizable=0;points=[];rotation=35;" vertex="1" connectable="0" parent="ctMOSWHJZRxfP_i-9TRb-32">
          <mxGeometry x="0.329" y="-3" relative="1" as="geometry">
            <mxPoint x="-30" y="-36" as="offset" />
          </mxGeometry>
        </mxCell>
        <mxCell id="ctMOSWHJZRxfP_i-9TRb-33" value="" style="endArrow=none;html=1;rounded=0;entryX=1;entryY=0.25;entryDx=0;entryDy=0;exitX=-0.008;exitY=0.357;exitDx=0;exitDy=0;exitPerimeter=0;" edge="1" parent="1" source="ctMOSWHJZRxfP_i-9TRb-4" target="ctMOSWHJZRxfP_i-9TRb-16">
          <mxGeometry relative="1" as="geometry">
            <mxPoint x="140" y="400" as="sourcePoint" />
            <mxPoint x="300" y="400" as="targetPoint" />
          </mxGeometry>
        </mxCell>
        <mxCell id="ctMOSWHJZRxfP_i-9TRb-44" value="CONTÉM" style="edgeLabel;html=1;align=center;verticalAlign=middle;resizable=0;points=[];rotation=0;" vertex="1" connectable="0" parent="ctMOSWHJZRxfP_i-9TRb-33">
          <mxGeometry x="-0.2582" y="-4" relative="1" as="geometry">
            <mxPoint x="-16" y="-13" as="offset" />
          </mxGeometry>
        </mxCell>
      </root>
    </mxGraphModel>
  </diagram>
</mxfile>
